<?xml version="1.0" standalone="no"?><!DOCTYPE svg PUBLIC "-//W3C//DTD SVG 1.1//EN" "http://www.w3.org/Graphics/SVG/1.1/DTD/svg11.dtd"><svg t="1721817831530" class="icon" viewBox="0 0 1024 1024" version="1.1" xmlns="http://www.w3.org/2000/svg" p-id="19249" xmlns:xlink="http://www.w3.org/1999/xlink" width="200" height="200"><path d="M846.451933 24.778663a174.103906 174.103906 0 0 1 67.915533 237.51675l-98.683895 171.102114 82.549265 47.65344a120.822107 120.822107 0 0 1 46.902992 163.972859l-184.610175 318.940345a120.822107 120.822107 0 0 1-165.473755 41.274632L123.020188 732.826227a120.822107 120.822107 0 0 1-46.902992-163.972859l184.610176-319.315568a120.446883 120.446883 0 0 1 165.473755-41.649857l82.549266 47.65344 98.683894-171.102114A174.479129 174.479129 0 0 1 846.451933 24.778663zM262.603492 409.007972L147.03452 609.752777a39.773737 39.773737 0 0 0 15.759405 54.40747l66.78986 37.522393 65.664189-109.190164a39.773737 39.773737 0 0 1 53.657023-14.633734 40.524185 40.524185 0 0 1 18.761196 23.639108 39.773737 39.773737 0 0 1-3.752239 30.017915l-64.163293 112.191956 187.611967 108.064493 67.540309-112.56718a40.148961 40.148961 0 0 1 54.032246-14.633734 42.025081 42.025081 0 0 1 18.761197 23.639108 39.773737 39.773737 0 0 1-3.75224 30.017915l-67.540308 112.56718 78.046579 46.902992a40.148961 40.148961 0 0 0 55.157918-13.883285L811.180884 714.815478z m415.748119-283.669295l-138.457632 239.768094-153.466589-88.552848a40.148961 40.148961 0 0 0-55.157918 13.508062l-28.892243 49.904783L848.703277 645.774274l24.389556-42.400304a39.773737 39.773737 0 0 0-15.759405-54.407471l-153.46659-88.552848 138.457632-239.768094a95.306879 95.306879 0 0 0-165.098531-95.30688z" p-id="19250" fill="#ffffff"></path></svg>