<?xml version="1.0" standalone="no"?><!DOCTYPE svg PUBLIC "-//W3C//DTD SVG 1.1//EN" "http://www.w3.org/Graphics/SVG/1.1/DTD/svg11.dtd"><svg t="1721792649112" class="icon" viewBox="0 0 1024 1024" version="1.1" xmlns="http://www.w3.org/2000/svg" p-id="27929" xmlns:xlink="http://www.w3.org/1999/xlink" width="200" height="200"><path d="M761.17333333 955.73333333H279.89333333c-54.61333333 0-102.4-47.78666667-102.4-109.22666666V382.29333333c0-20.48 17.06666667-34.13333333 34.13333334-34.13333333s34.13333333 17.06666667 34.13333333 34.13333333v467.62666667c0 20.48 13.65333333 37.54666667 30.72 37.54666667h481.28c17.06666667 0 30.72-17.06666667 30.72-37.54666667V382.29333333c0-20.48 17.06666667-34.13333333 34.13333333-34.13333333s34.13333333 17.06666667 34.13333334 34.13333333v467.62666667c6.82666667 58.02666667-37.54666667 105.81333333-95.57333334 105.81333333zM931.84 276.48h-819.2c-20.48 0-37.54666667-17.06666667-37.54666667-37.54666667s17.06666667-37.54666667 37.54666667-37.54666666h819.2c20.48 0 37.54666667 17.06666667 37.54666667 37.54666666s-17.06666667 37.54666667-37.54666667 37.54666667zM658.77333333 139.94666667h-273.06666666c-20.48 0-37.54666667-17.06666667-37.54666667-37.54666667s17.06666667-37.54666667 37.54666667-37.54666667h273.06666666c20.48 0 37.54666667 17.06666667 37.54666667 37.54666667s-17.06666667 37.54666667-37.54666667 37.54666667z" fill="#ffffff" p-id="27930"></path><path d="M402.77333333 754.34666667c-20.48 0-37.54666667-17.06666667-37.54666666-37.54666667v-307.2c0-20.48 17.06666667-37.54666667 37.54666666-37.54666667s37.54666667 17.06666667 37.54666667 37.54666667v307.2c0 20.48-17.06666667 37.54666667-37.54666667 37.54666667zM641.70666667 754.34666667c-20.48 0-37.54666667-17.06666667-37.54666667-37.54666667v-307.2c0-20.48 17.06666667-37.54666667 37.54666667-37.54666667s37.54666667 17.06666667 37.54666666 37.54666667v307.2c0 20.48-17.06666667 37.54666667-37.54666666 37.54666667z" fill="#ffffff" p-id="27931"></path></svg>
