<?xml version="1.0" standalone="no"?><!DOCTYPE svg PUBLIC "-//W3C//DTD SVG 1.1//EN" "http://www.w3.org/Graphics/SVG/1.1/DTD/svg11.dtd"><svg t="1721792567175" class="icon" viewBox="0 0 1024 1024" version="1.1" xmlns="http://www.w3.org/2000/svg" p-id="19253" xmlns:xlink="http://www.w3.org/1999/xlink" width="200" height="200"><path d="M858.048 735.104a167.872 167.872 0 0 1-167.232 159.68H295.424a167.808 167.808 0 0 1-167.232-159.68H128V287.808h0.192A167.872 167.872 0 0 1 295.424 128H628.48l-72.192 60.928H295.424a107.136 107.136 0 0 0-106.496 107.008v430.976c0 58.88 47.872 106.88 106.496 106.88h395.392c58.752 0 106.496-48 106.496-106.88V425.344l60.8-59.968v369.728h-0.064z" fill="#ffffff" p-id="19254"></path><path d="M359.744 643.648a40.32 40.32 0 0 0 57.088 0L858.24 202.24a40.448 40.448 0 0 0 0-57.216l-0.128-0.064a40.32 40.32 0 0 0-56.96 0.064L359.68 586.432a40.448 40.448 0 0 0 0 57.216z" fill="#ffffff" p-id="19255"></path></svg>
