<?xml version="1.0" standalone="no"?><!DOCTYPE svg PUBLIC "-//W3C//DTD SVG 1.1//EN" "http://www.w3.org/Graphics/SVG/1.1/DTD/svg11.dtd"><svg t="1721792361822" class="icon" viewBox="0 0 1024 1024" version="1.1" xmlns="http://www.w3.org/2000/svg" p-id="1761" xmlns:xlink="http://www.w3.org/1999/xlink" width="200" height="200"><path d="M36.571429 1024a36.571429 36.571429 0 0 1-36.571429-36.571429 36.571429 36.571429 0 0 1 36.571429-36.571428h950.857142a36.571429 36.571429 0 0 1 36.571429 36.571428 36.571429 36.571429 0 0 1-36.571429 36.571429z m78.994285-81.115429a34.011429 34.011429 0 0 1-33.426285-28.233142A646.729143 646.729143 0 0 1 73.142857 807.131429a633.636571 633.636571 0 0 1 148.333714-407.917715 612.132571 612.132571 0 0 1 339.456-204.8V65.682286a65.828571 65.828571 0 0 1 65.828572-65.462857 64.219429 64.219429 0 0 1 41.106286 14.628571l332.214857 269.385143a65.024 65.024 0 0 1 24.210285 50.761143 65.170286 65.170286 0 0 1-24.137142 50.761143L667.867429 655.213714a64.585143 64.585143 0 0 1-41.106286 14.628572 65.828571 65.828571 0 0 1-65.828572-65.828572V477.769143a544.548571 544.548571 0 0 0-227.254857 114.907428 545.426286 545.426286 0 0 0-184.466285 321.828572 33.938286 33.938286 0 0 1-33.499429 28.086857z m513.170286-720.457142a33.865143 33.865143 0 0 1-28.452571 33.426285 543.524571 543.524571 0 0 0-326.948572 187.099429 563.931429 563.931429 0 0 0-124.342857 270.628571 614.4 614.4 0 0 1 140.873143-172.470857 612.571429 612.571429 0 0 1 299.885714-137.947428 34.377143 34.377143 0 0 1 5.339429-0.438858 34.011429 34.011429 0 0 1 21.942857 8.118858 34.084571 34.084571 0 0 1 11.922286 25.819428v162.377143l325.851428-264.265143L628.955429 70.582857z" fill="#ffffff" p-id="1762"></path></svg>
