<?xml version="1.0" standalone="no"?><!DOCTYPE svg PUBLIC "-//W3C//DTD SVG 1.1//EN" "http://www.w3.org/Graphics/SVG/1.1/DTD/svg11.dtd"><svg t="1721792375061" class="icon" viewBox="0 0 1024 1024" version="1.1" xmlns="http://www.w3.org/2000/svg" p-id="1979" xmlns:xlink="http://www.w3.org/1999/xlink" width="200" height="200"><path d="M987.697006 1024a36.571429 36.571429 0 0 0 0-73.142857H36.839863a36.571429 36.571429 0 1 0 0 73.142857z m-78.994286-81.115429a34.011429 34.011429 0 0 0 33.426286-28.233142A646.729143 646.729143 0 0 0 951.125577 807.058286a633.636571 633.636571 0 0 0-148.260571-407.844572 612.132571 612.132571 0 0 0-339.456-204.8V65.828571a65.828571 65.828571 0 0 0-65.828572-65.462857 64.219429 64.219429 0 0 0-41.106285 14.628572L24.259291 284.379429a65.389714 65.389714 0 0 0 0 101.595428l332.507429 269.165714a64.585143 64.585143 0 0 0 41.106286 14.628572 65.828571 65.828571 0 0 0 65.828571-65.828572V478.061714a544.548571 544.548571 0 0 1 226.962286 114.907429 545.426286 545.426286 0 0 1 184.466286 321.828571 33.938286 33.938286 0 0 0 33.499428 28.086857zM395.239863 222.427429a33.865143 33.865143 0 0 0 28.452571 33.426285 543.524571 543.524571 0 0 1 326.948572 187.099429 563.931429 563.931429 0 0 1 124.342857 270.628571A614.4 614.4 0 0 0 734.695863 541.257143a612.571429 612.571429 0 0 0-299.885714-137.947429 34.377143 34.377143 0 0 0-5.339429-0.438857 33.865143 33.865143 0 0 0-34.230857 33.938286v162.304L69.388434 334.848 395.239863 70.656z" fill="#ffffff" p-id="1980"></path></svg>
