<?xml version="1.0" standalone="no"?><!DOCTYPE svg PUBLIC "-//W3C//DTD SVG 1.1//EN" "http://www.w3.org/Graphics/SVG/1.1/DTD/svg11.dtd"><svg t="1721817794895" class="icon" viewBox="0 0 1024 1024" version="1.1" xmlns="http://www.w3.org/2000/svg" p-id="16540" xmlns:xlink="http://www.w3.org/1999/xlink" width="200" height="200"><path d="M261.8 261.7c-41.2 41.1-68.7 93-79.6 150.1l75.5 14.5c8-41.9 28.2-80 58.5-110.2 26.1-26.1 58.6-45 94-54.7l-20.3-74.1c-48.2 13.1-92.5 38.9-128.1 74.4z" p-id="16541" fill="#ffffff"></path><path d="M1016 961.5L816.4 762c152.2-179.9 143.8-450.2-25.8-619.8-178.7-178.8-469.5-178.7-648.3 0C55.7 228.8 8 343.9 8 466.4S55.7 704 142.3 790.5c86.6 86.6 201.7 134.3 324.1 134.3 109.6 0 213.1-38.4 295.7-108.5l199.5 199.5 54.4-54.3zM196.6 736.2c-72-72-111.8-167.9-111.8-269.8 0-102 39.7-197.8 111.8-269.9C271 122.1 368.8 84.9 466.5 84.9c97.7 0 195.5 37.2 269.8 111.6 148.8 148.8 148.8 390.9 0 539.7-72 72.1-167.9 111.8-269.8 111.8s-197.8-39.7-269.9-111.8z" p-id="16542" fill="#ffffff"></path></svg>